<svg xmlns="http://www.w3.org/2000/svg" viewBox="0 0 22.44 18"><defs><style>.cls-1{fill:#fff;}</style></defs><g id="Layer_2" data-name="Layer 2"><g id="Filled_Icon" data-name="Filled Icon"><path class="cls-1" d="M22.44,2.33a2.39,2.39,0,0,1-2.22,0c.94-.56,1-1,1.32-2a9.28,9.28,0,0,1-2.89,1.11,4.54,4.54,0,0,0-7.86,3.1,4.42,4.42,0,0,0,.12,1A12.9,12.9,0,0,1,1.54.83,4.57,4.57,0,0,0,3,6.9,4.59,4.59,0,0,1,.89,6.33v.06a4.54,4.54,0,0,0,3.65,4.45,4.62,4.62,0,0,1-2.06.08,4.56,4.56,0,0,0,4.25,3.16A9.16,9.16,0,0,1,0,16a12.86,12.86,0,0,0,7,2A12.84,12.84,0,0,0,19.89,5.07c0-.2,0-.39,0-.59A9.37,9.37,0,0,0,22.44,2.33Z"/></g></g></svg>