<?xml version="1.0" encoding="utf-8"?>
<!-- Generator: Adobe Illustrator 24.1.2, SVG Export Plug-In . SVG Version: 6.00 Build 0)  -->
<svg version="1.1" id="Layer_1" xmlns="http://www.w3.org/2000/svg" xmlns:xlink="http://www.w3.org/1999/xlink" x="0px" y="0px"
	 viewBox="0 0 341.1 230.8" style="enable-background:new 0 0 341.1 230.8;" xml:space="preserve">
<style type="text/css">
	.st0{fill:#FFFFFF;}
</style>
<g id="Layer_2_1_">
	<g id="Layer_1-2">
		<path class="st0" d="M111.3,43.9c26.4,0,52.8-0.6,79.1,0.2c21.9,0.7,41.3,9.4,57.4,24c9.1,8.3,19.3,11.6,31,14.1
			c13.6,2.9,26.7,7.5,39.1,13.7c14.9,7.6,23.7,20.2,21.9,38.2c-0.4,4.2,0,8.5-0.1,12.7c-0.4,11.3-7.5,18.3-19,18.7
			c-0.7,0.1-1.5,0.1-2.2,0c-8.1-1.4-12.2,1.2-15.7,9.6c-5.8,14.1-18.2,20.9-33.5,20.1s-26.4-8.9-31.6-23.4c-1.9-5.5-4.5-6.5-9.5-6.4
			c-31.4,0.2-62.7,0.2-94.1,0c-5.1,0-7.2,1.3-8.8,6.3c-6.6,18.5-26.9,28.2-45.4,21.6c-10.2-3.6-18.3-11.8-21.8-22.1
			c-1.6-4.9-3.7-6.1-8.3-5.9c-7,0.5-13.9,0.4-20.9-0.2c-2.6-0.3-4.8-3.7-7.2-5.7c2.4-2,4.6-5.4,7.1-5.7c7.1-0.8,14.4-0.5,21.6-0.2
			c4,0.1,6-0.7,7.4-5.1c5-15.3,18.3-24.8,33.7-24.9c15.7-0.1,29.1,9.4,34.3,25c1.3,3.9,2.9,5,6.7,4.9c32.6-0.1,65.2-0.1,97.8,0
			c3.9,0,5.4-1.2,6.7-5c5.2-15.6,18.7-25.1,34.4-24.9c15.5-0.1,29.2,10.1,33.5,25c1.9,6.3,5.9,4.9,9.8,4.9
			c12.9,0.1,12.3-0.3,13.3-12.8c2.1-26.4-9-33.2-28.7-40.7c-11.9-4.6-25.1-6-37.6-9c-3.3-0.8-6.4-2.2-9.2-4
			c-3.3-2.3-6.4-4.8-9.3-7.5c-19.2-17.5-42.1-24.6-67.8-24.5c-44.8,0.2-89.6,0-134.4,0c-2.2,0-4.8,0.6-6.6-0.3
			c-2.1-1.1-5.2-3.7-5-5.3c0.3-2.3,2.8-4.7,5-6.1c1.4-0.9,3.9-0.3,5.9-0.3h71L111.3,43.9z M91.3,183.4c13.2,0.2,24.1-10.3,24.3-23.5
			c0.2-13.2-10.3-24.1-23.5-24.3s-24.1,10.3-24.3,23.5c0,0.1,0,0.2,0,0.2C67.9,172.4,78.3,183.1,91.3,183.4L91.3,183.4z
			 M271.2,135.6c-13.2-0.1-24,10.5-24.1,23.7c-0.1,13.2,10.5,24,23.7,24.1c13.2,0.1,24-10.5,24.1-23.7c0-0.1,0-0.1,0-0.2
			C294.8,146.5,284.3,135.8,271.2,135.6L271.2,135.6z"/>
		<path class="st0" d="M175.2,104.2c-15.4,0-30.9,0-46.3,0c-4.4,0-8.5-0.7-8.5-5.9s4-6.1,8.4-6.1c29.4,0,58.7,0.3,88.1-0.2
			c5.6-0.1,11-3.6,16.6-4.9c2.9-0.7,6.1-0.1,9.2-0.1c-0.5,3-0.1,8-1.8,8.8c-6.6,3.5-13.7,7.4-20.9,8
			C205.1,105.1,190.1,104.2,175.2,104.2z"/>
		<path class="st0" d="M93.7,13.1c-10.7,0-21.3-0.1-32,0c-4.3,0-8.5-0.7-8.5-5.9s4-6.1,8.4-6.1c21.6,0.1,43.2,0.1,64.8,0
			c4.4,0,8.5,0.7,8.5,5.9s-4,6.1-8.4,6.1C115.6,13,104.6,13.1,93.7,13.1z"/>
		<path class="st0" d="M41,72.8c10.2,0,20.4-0.4,30.5,0.3c2.8,0.2,7.4,3.1,7.8,5.4c0.9,5-3.4,6.3-7.9,6.3c-20.8,0-41.7,0.2-62.5-0.3
			c-2.8-0.1-7.4-3.2-7.8-5.4c-0.9-5,3.4-6.3,7.9-6.3C19.6,72.9,30.3,72.8,41,72.8z"/>
		<path class="st0" d="M214.3,217.8c10.2,0,20.4-0.4,30.5,0.3c2.8,0.2,7.4,3.1,7.8,5.4c0.9,5-3.4,6.3-7.9,6.3
			c-20.8-0.1-41.7,0.2-62.5-0.3c-2.8-0.1-7.4-3.2-7.8-5.5c-0.9-5,3.4-6.3,7.9-6.3C193,217.8,203.6,217.8,214.3,217.8z"/>
		<path class="st0" d="M151.8,217.9c4,0,8.1-0.7,11.8,0.3c2.2,0.6,5.3,3.6,5.3,5.6s-3.2,5.5-5.1,5.7c-8.6,0.6-17.3,0.6-25.9,0
			c-2-0.1-3.8-3.6-5.7-5.6c2.1-2,3.9-5.2,6.3-5.7C142.8,217.1,147.4,217.8,151.8,217.9L151.8,217.9z"/>
		<path class="st0" d="M32.3,13c-4.2,0-8.6,0.6-12.5-0.3c-2.2-0.5-5.2-3.7-5.2-5.7s3.2-5.4,5.3-5.6c8.1-0.6,16.3-0.6,24.4,0
			c2,0.2,5.2,3.7,5.1,5.7s-3.1,5-5.3,5.6C40.4,13.7,36.3,13,32.3,13z"/>
	</g>
</g>
</svg>
