<?xml version="1.0" encoding="utf-8"?>
<!-- Generator: Adobe Illustrator 24.1.2, SVG Export Plug-In . SVG Version: 6.00 Build 0)  -->
<svg version="1.1" id="Layer_1" xmlns="http://www.w3.org/2000/svg" xmlns:xlink="http://www.w3.org/1999/xlink" x="0px" y="0px"
	 viewBox="0 0 383.2 344.8" style="enable-background:new 0 0 383.2 344.8;" xml:space="preserve">
<style type="text/css">
	.st0{fill:#FFFFFF;}
</style>
<g id="Layer_2_1_">
	<g id="Layer_1-2">
		<path class="st0" d="M0.5,58.9c3.6-9,10.4-14.8,19-18.9c18.4-8.8,36-19.5,55.1-26.3c17.9-6.4,37.1-9,55.9-12.7
			c11.9-2.3,21.6,3.7,26.1,15c2,5.1,3.8,10.3,5.6,15.4c3.5,9.8,3.2,10.7-6.4,16.2c0.5,2.2,0.9,4.6,1.5,6.9c0.5,2.1,1.2,4.2,1.9,6.3
			c28.1-10.5,39.2-10.5,65.3,0.2c1.3-4.5,2.5-8.8,3.7-13c-10.2-6.4-10.3-6.8-6.4-17.7c1.7-4.7,3.3-9.4,5.1-14
			c4.6-11.7,14.3-17.2,26.6-15.4c42,5.9,81,19.7,116.8,42.5c11.5,7.3,15.1,17.2,10.7,30c-1.6,4.7-3.4,9.3-5.1,14
			c-3.5,9.6-4.7,10.3-15.3,8.4c-2.7,5.4-7.9,9.8-3.3,17.6c2.6,4.5-1.2,8.3-6.5,9.4c-6.3,1.4-10,9.6-7.1,15.5c2.8,5.7,0.5,10-6,11.5
			c-6.1,1.4-10,10-7,15.6c2.8,5.3,0.6,9.9-5.2,11.4c-7,1.7-11,9.6-7.9,15.7c2.7,5.4,0.6,9.6-5.1,11.4c-2.7,1.1-5.1,2.8-6.9,5.1
			c-9,10.8-6.3,23.7-5.9,36.1c0.1,1.9,2.3,4.2,4.1,5.4c24.1,15.9,21.1,12,21.3,40.8c0.1,16.7-5.2,22-21.7,22.1c-3,0.2-6,0.2-9,0
			c-13.8-1.4-25,0.7-34.7,13.3s-25.3,17.3-41.4,17.4c-27.1,0.3-54.3,0-81.4,0.1c-7.7,0-14.3-2.8-16.8-10c-6.4-18.4-19-24-37.2-20.9
			c-3.4,0.6-7,0.1-10.4-0.4c-7.4-1-13.2-7-13.7-14.5c-0.2-2-0.2-4-0.2-6c0.3-30-3.3-25.9,21.5-42.2c1.8-1.2,3.8-3.6,3.8-5.5
			c0.4-12.4,2.8-25.3-6-36.1c-1.6-2-3.9-4-6.3-4.8c-6.2-1.8-8.3-5.9-5.3-11.7c2.8-5.5-1.3-14-7.6-15.4s-8.5-6-5.5-11.7
			c2.7-5.1-1.2-14.1-6.7-15.3c-7.5-1.7-9.3-5.6-5.8-12.3c2.1-4.1-2.1-13.5-6.6-14.7c-8.8-2.3-8.9-4.2-6.4-13.1
			c1.1-4.1-2.1-9.4-3.2-13.8c-12.4,1.6-13,1.2-17-9.5C5.2,80.7,2.8,75,0.5,69.3V58.9z M309.3,298c2.1-15.2,3.1-29-14.5-35.4
			c-10.1-3.6-11.6-12-10.3-21.3c0.9-6.3-1.5-9.9-7.2-12.8c-8.5-4.2-16.9-8.6-24.5-14.2c-22-16.3-46.2-23.1-73.3-19.6
			c-3.4,0.4-7-0.2-10.4,0.1c-2.7,0.2-5.3,0.9-7.7,2.1c-19.5,11-38.9,22.2-58.1,33.6c-2,1.2-4.4,4.8-4,6.7
			c2.9,15.1-4.6,23.8-17.3,29.8c-2,0.9-3.9,2.2-5.6,3.7c-1.3,1.3-2.8,3.1-2.9,4.7c-0.3,7.4-0.1,14.8-0.1,23c7.9,0,14.8-0.1,21.7,0
			c26,0.4,19.3-3.6,31.7,18.8c5.2,9.4,10.7,13.4,21.3,12.1c8.6-1,17.4-0.2,27-0.2c-4.1-4.9-7.4-8.4-10-12.3c-2.8-3.8-5-8-6.6-12.4
			c-1.7-5.3-4.2-7-10-6.9c-15.3,0.3-29.2-10-34.1-24.4c-6.5-19.1,3.6-39.8,22.7-46.3c10.1-3.4,21.1-2.3,30.3,3.1
			c2.3,1.4,4.5,2.8,6.7,4.2c22.5-17.8,46.9-22.2,72-8.7c28.4,15.4,37.7,40.8,32.1,72.5H309.3z M265,280.8
			c-0.2-26.6-22-47.9-48.5-47.6c-26.6,0.2-47.9,22-47.6,48.5c0.2,26.3,21.7,47.6,48,47.6c26.6,0,48.1-21.5,48.2-48.1
			C265,281.1,265,280.9,265,280.8z M192.1,172.4c28.9-0.2,52.1-23.7,51.9-52.6s-23.7-52.1-52.6-51.9c-28.9,0.2-52.1,23.7-51.9,52.6
			c0,0,0,0,0,0C139.7,149.4,163.3,172.6,192.1,172.4z M43.8,103.4c2.6-0.9,4.6-1.5,6.7-2.3c27.6-10,55.1-20,82.7-30.1
			c12.4-4.5,12.4-4.5,8.2-17c-0.1-0.4-0.7-0.7-1.4-1.3c-5.4,2-11,3.9-16.5,6c-5,1.9-9.7,2.1-11.9-3.5s1.4-8.7,6.5-10.5
			c9.6-3.4,19.1-7,29.2-10.7c-1.5-4.2-3-7.8-4.1-11.6c-1.8-6-5.9-7.8-11.5-6.6C100.3,22.4,68.3,27,40.8,45.5
			c-3.3,2.2-7,3.8-10.5,5.7c-17.3,9.2-17.3,9.2-9.9,27.2c0.2,0.4,0.7,0.6,1.5,1.2c9.3-3.4,18.9-6.7,28.4-10.3
			c4.7-1.8,9.2-2,11.3,3.3c2.3,5.6-0.9,8.8-6.1,10.7c-6,2.1-11.9,4.5-18.1,6.9L43.8,103.4z M237,34.3L362.5,80
			c1.6-4.5,2.9-8.5,4.5-12.3c2.1-4.8,0.5-8.6-3.7-10.8c-24.8-12.9-48-29.5-76.6-33.8c-8.3-1.3-16.6-3.3-24.8-5
			c-19.1-4.1-19.1-4.2-25.1,14.4C236.9,33.1,236.9,33.7,237,34.3z M339.7,103.5l6.4-13.5L242.2,52.2c-1.2,5.6-2.2,10-3.2,14.7
			L339.7,103.5z M132.4,87.2l-82,29.9l6.5,13.4c22.5-8.1,44.6-16.1,66.6-24.3c1.5-0.6,2.9-2.6,3.6-4.3
			C128.9,97.6,130.3,93.1,132.4,87.2z M251.1,87.2c2.1,5.9,3.5,10.4,5.4,14.7c0.7,1.7,2,3.8,3.5,4.3c22,8.2,44.2,16.2,66.7,24.3
			c2.2-4.7,4.1-8.8,6.3-13.5L251.1,87.2z M162.5,245.4c-6.8-6.8-17.1-7.7-25.9-1.5c-8.7,6.1-11.6,17.6-6.8,27.1c4.5,9,14,13.3,22,11
			L162.5,245.4z M294,198.3c-19.5-7.1-38.4-13.9-57.2-21.1c-5.4-2.1-9.4-1.5-13.4,3.3l62,35.6L294,198.3z M162,179.3
			c-5.1-1.4-9-3.9-11.7-2.9c-20.2,6.9-40.2,14.4-60.8,21.9l8.7,17.9L162,179.3z M123.5,122.3l-60.1,21.9c2.4,4.9,4.4,9,6.6,13.5
			l43.7-16c13-4.8,13-4.8,10.6-18.4C124.2,123.1,124,122.9,123.5,122.3L123.5,122.3z M313.5,157.6l6.5-13.5l-60.5-22
			c-0.7,4.2-1.7,7.6-1.8,11c0,1.7,1.3,4.4,2.6,4.9C277.9,144.7,295.6,151,313.5,157.6L313.5,157.6z M76.4,171.2
			c2.4,4.9,4.5,9,6.7,13.5l57.2-20.9l-8.6-12.6L76.4,171.2z M243.3,163.8l57.2,20.8l6.6-13.4L252,151.1
			C249.1,155.3,246.5,159.1,243.3,163.8L243.3,163.8z"/>
		<path class="st0" d="M217.1,273.8c3.5,0,7.3-0.9,10.3,0.3s6.9,4.3,7,6.7c0.1,2.5-3.7,7.1-6.2,7.4c-7.6,1-15.3,0.9-22.9-0.1
			c-2.4-0.3-5.5-4.9-5.7-7.7c-0.1-2,3.7-5.4,6.4-6.2C209.4,273,213.4,273.9,217.1,273.8L217.1,273.8z"/>
		<path class="st0" d="M191.8,150c-16.5,0-29.9-13.4-29.9-29.9c0-16.5,13.4-29.9,29.9-29.9c16.5,0,29.9,13.4,29.9,29.9c0,0,0,0,0,0
			C221.6,136.6,208.2,150,191.8,150z M206.6,119.9c-0.2-8.2-7-14.7-15.2-14.6c-8.2,0.2-14.7,7-14.6,15.2s7,14.7,15.2,14.6
			c0.1,0,0.2,0,0.4,0C200.4,134.5,206.7,127.9,206.6,119.9L206.6,119.9z"/>
		<path class="st0" d="M85,72.4c-1.8-2.7-4.8-5.2-5.3-8.2c-0.8-4.6,2.6-8,7.1-7.1c2.8,0.6,6.7,4.3,6.8,6.7c0.2,2.8-3.4,5.7-5.3,8.6
			L85,72.4z"/>
	</g>
</g>
</svg>
