<svg xmlns="http://www.w3.org/2000/svg" viewBox="0 0 547.96 777.51"><defs><style>.cls-1{fill:#fff;stroke:#000;stroke-miterlimit:10;}</style></defs><g id="Layer_2" data-name="Layer 2"><g id="Layer_1-2" data-name="Layer 1"><path class="cls-1" d="M209.16,24.14l-.08,3-3.15.69-4.07-.53-6.15,1.3-4.6,1.46-3.69.23-1.16,1.62,1.31,2.23,2.77.61L193,34l3-1.31,3.07-.15,6.53.31,5,1.53,5.92,1.46,8.68,3.92.77,1.85L225,43.05l-4.07,1.46-2.46,1.15-4.37,2.92-6.69,3.54-8.14,5.76L190,62.11,182.59,67l-6.69,2.92-6.3,1.54-5.53.15-7.61.15-2.92.77L151.85,76l-1.31,3.84-1.46,2.61L145.39,88l-3.53,6.14-2.39,3-.23,3.45.23,4.84v5.15l3.15,2.84,2.77,1.46,3.31-.23,5.38-1.46,6.06-1.84,8.23-3.31,3.3.16.77,2.07-.77,2-2.77,1.46-8.37,3.15-6.3,1.84L153,120.81l-.24,2.23,2.08,1.84,4.38.54h3.53l4.46-.16,4.84-1.15,7-3.69,4.61-.92,3.92-.78,3,1,4.38-.22,4.31.54,3.53,2.07,5.53.54,7.23,2.23,3.91.53,6.07-1.07,7.76.54,3.38,1.3,1.85,3.15-.39,4.07-.92,5-1.84,5.76-2.61,7.23-2.61,7.91-2.77,7.22-1.84,5-6.3,9.83-7.61,9.6-6.84,9.46-8.68,8.67-8,6.77-5.07,5.37-2.69,8.84-3.76,4.45-4.77,3.38-5.76,4.76L157.23,248l-7.45,3.77L145,257.24l-3.38,4.38-3.38,2.08-4.76,2.38-3.07-.69-6.07-2.77-6.76-4.38-9.91-4.38L96.55,248l-5.76-4.38-7.15-5.76-7.84-6.45-8.45-3.07-7.45-1.31-9.52,2-6.76,3.76-5.84,4.07-3,7.45L32.7,250.1l-2.38,8.83-2.68,5.38L25,272.53l-.38,9.84-2.39,5.76-2.69,9.14-2.38,9.14-4.38,8.53-2.38,8.45L9,333.92,5.2,342.76l-2.38,5.07-.31,5.07-.3,8.53v14.9l-1.7,6.15,1,5.38-.39,8.83,3.08,7.07,2.38,1.69L11,404.06,15,400.37l5.84-7.06,5.07-8.15,2-6.76L26.63,373l-1.69-6.76L22.86,358l-2-8.52-1.08-6.46V337l1.38-6.83,3.38-10.46,3.38-5.45L31,311.49l2.38-3.69,4.38-.39,2.07-1.3,3.08-2.77,3.37-3,3.08-4.07,1.3-4.76,1.08-4.07.3-5.45,1-4.76,2.39-3,2.38-.69,3.07,1,4.38,2.38L70,282.37l5.08,7.45,5.76,6.77L87,302l5.46,4.38,5.36,2.38,1.69,3.38-1.69,1.69-5.76-1.31-8.15-.69L73.4,309.8l-10.14-2L51,307.41l-7.14.39-5.45,3.38-5.76,5.07-4.77,8.14-3.69,9.22-.38,6.76,2.08,12.22,4.76,15.6,2.38,12.21,3,11.91,2.07,8.38,1,7.84,2.69,8.83,2.07,13.53,2,4.76,5.15,4.07,4.76,4.75,5.38,8.15L65,462.15l5.76,8.45,8.46,8.14,6.14,3.77,4.07.3,3.38-1,2.07-4.75,2.3-4.08,1.39-5.76V454l-1.69-3.76c-.31,0-.31-2.38-.31-2.69l-.69-2.37-2.77-4.07L88,436,78.54,432l-3.46-1.07-.62-5.77.31-3.69L68.32,414l-4.08-9.53-3.38-13.53L58.1,378.4l-4.69-9.84-1.69-11.9,2.69-7.15,4.76-2.69h3.69l5.45,4.77,7.84,4.76,8.14,3L104,368.88l9.53,5.45v5.07l8.76,5.07,11.21,3.76H156.9l-1.69,4.39-1,2.38,3,5.68,5.76,8.53,9.22,9.14,11.14,12.22,9.53,8.45,17.83,13.67,14.44,7.76L236,466.22l13.91,9.45,12.83,9.14,11.07,9.37,11.52,15.6.53,6.52,2.61,6.77,7.07,5.07,6.46,2.54,4-.55,3.16-3.06,4.53-4.84,1.08-6.53,5.37-9.3,1.15-7.15.85-7.91.54-6.22,1.77-3.91,3.6-1.77h3.47l.22,2.61-2.52,2.76-2.23,6-1.7,3.69V499l-.61,9.6-1.37,4.84-4.23,7.3-5.69,9.38-5.68,10.21-3.38,13.3-1.69,13.9,1.69,15.52,2.23,9.07,5.38,11.91,6.83,14.14,5.38,11.06,7.37,11.6,8.75,10.76,1.7,3.69v2.53L340.78,661l-3.07,5.08-4.84,6.76L323,685.59,313,696.34,304,706.26l-3.91,2.3-8,3.07-4.76,4.54-2.54,5.14-5.68,7.07-6.45,7.06-7.91,8.23-4.85,8.45L257,760.65l-1.69,7.06.31,5.69L259,777h12.45l5.37-.54,5.62-3.37,7.37-3.39,1.15-2.84h2.53l3.92-1.69,3.69-3.46,2-13.52L302,745.35l-.54-2.84,2,.53,2.23.62L308,742l3.69-2.3,3.91-5.07,4.84-6.84,2.54-6.22.53-5.08,3.16-2.3,4.53-2.54,3.69-2.22,3.07-6.23,6.53-6.83L356.67,685l9.29-6.22,9.39-5.14,2.21-2.23.86-2.31,2-2.53L379,663.22l-.3-6.22-1.23-5.83L376,647.79l-3.22-5.54-5.14-6.45L365.12,631l-.53-5.08v-6.83l1.14-3.92,3.07-10.52,3.15-5.07,3.39-2,6.21-3.92,7.38-6.3,9.91-8.45,6.77-7.06,6.83-7.92,7.07-8,5.07-9,4.23-7.69,4-8.75,2.85-9.69.85-9L437,505l2.31-2.23,2.53-.61,2.23,1.46,2,4.76.53,6.53.93,6.22-.61,4.23-.54,6.53v13.91l1.69,11,2,2.84,1.69-.23.84-2-1.15-4.53v-7.69l2.31-6.46,1.08-9.37,1.15-6.53,1.47-3.07h1.68l1.38,1.38,1.39,5.38,1.14,5.14-.53,8.15-1.69,11.06L455.7,561.6,451,571.81l-2.85,8.76-.54,5.38.54,6.22,2,6h3.7l1.92-2.61-1.08-2.85-.84-5.07,3.37-4.54,3.92-5.38,2.61-5.07,6.22-9.92,5.08-9.06,2.23-9.92,2-13.06v-13l-2.53-9.07-5.07-7.07-.62-3.38,2.31-1.15,2.85,1.38,3.69,4.54,4.53,8.22,1.92,9.59,1.15,12.76,2.85,8.83.31.24,3.91,8.75,2.53.93,1.15-2.31-.3-1.38L496,542.05l-.3-6.53.3-9.6,1.69-10.76v-5.38l-.61-4.53-4.53-9.07-3.92-6.53,1.39-2.53,5.38-1.15,7.37-3.38,7.91-4.23,7.07-6.22,9.07-12.21,5.14-10.14,4.23-9.68,1.39-15.52.31-13.91-2.23-17.21L533,381l-2.23-12.75L529.38,355l1.08-8.45L532.77,336l4.76-10.45,6.83-10.75L546.9,308l.53-3.38-2.22-3.07L542.07,300v4.84l-2.53,2.85L535,314.49l-2.53,1.69-7.07,8.53-2.84,4.53-3.38,7.61-3.69.61-3.38-2-2-9.07.55-10.44,2.3-9.69,5.62-9.06,11.36-17,6.77-13.83.84-9.69-1.08-3.07-2,2-3.38,8.45L526,272.61l-7.61,6.22-8.76,8.45-13,15.29-2.54-.23-.84-2.61-.3-6.22.84-11.61,4-13,7.07-14.44,9.38-11.6,11.6-9.92,1.08-2.3-1.39-1.07-5.91,3.07-4.85,3.15-8.22,7.07L496.24,252l-7.31,9.91-7.14,13-3.91,10.53-1.15,10.45L476.18,310l3.38,14.76,3.38,12.75,6.53,20.06,4.23,24,2.53,18.36v9.92l-1.08,10.45-1.68,8.54-3.16,9.59-11.91,15-12.14,11.06-15.6,8.76-15,.84-2-7.3-5.37-10.52-7.38-10.14-4.84-6-6.45-8.76-13.92-13.28-14.13-11.6-6.22-4.85L355.86,388.4l-28-23.51-15.3-19-16.74-27.42-4.54-16.44,1.15-10.22,2.31-2,5.92,4,9.37,4.54,7.62-.31,8.74,4,9.38,5.68,4.84,3.92L346.8,316l6.45.84,1.46-2.84-1.69-.31-2,.85-3.15-2-2.77-4.22-4-6.54-7.69-7.06-7.6-2.84-4.24-.85.85-2.23h5.92l6.83,2.23,9.91,6.53,4.54,2,1.69-2.31-2.85-3.92-7.69-6.84-11.9-6.22-14.38-5.61-2.84-2.3,2.84-2,6.46,3.15,11.92,2,12.74,5.07,6.77,3.38,11.9,1.69,8.54-1.15,4.75-2.23,6.54-4,2.84-2.76.31-2-2.64.22-2.53,2.61-8.45,2.77-7.38,1.15-6.22-.85-6-4.76-5.38-6.3-6.45-4.76-9.68-2-9.3-3.15-4-2.54.3-2.22,3.69.53h8.22l8.21-.53h8.46l4.54-.85,3.69,3.07,5.91,1.46h4.84l2.22-1.68-3.91-1.16-4.84-3.15-5.07-4.76-8.22-4.3-6.76-.85-6.22-.85L332,239.19l4.54-2.54h7.36l5.69,1.69,5.62,2.85,9.06,3.92,9.07.31,4.84-2.31,1.38-3.07-3.69-1.69-7.6-.31-6.53-2.23L356.08,231l-6.23-3.15-8.21-1.38-7.07-2.54-3.07-4,.53-2,4.54.93,5.69,1.69,3.37,2.53,4.84.54.54-2.54-5.07-4-1.47-3.61,6.83,1.07,6.46,3.38,8.22.92,3.15,5.92,8.45,5.07.46-.08,1.84-.77,2.23-1.38L381,225.9l-3.15.23L375,222.21l-5.69-8.76-9.91-8.83-10.13-4.53-2.85-3.38-6.23-7.38-5.68-3.07-.84-2.84,2.52-1.69,6,1.38,11.83,3.38,5.69,2,3.69,5.14,5.91,3.08h4.54l6,1.69,6.53-1.16,2.53-2.22-3.69-3.15-5.37-1.39-6.23-.84L370,186.49l-4.84-7.07L364,174.89l-6.22-5.62L351,165l-7.69-4.76-8.45-7.92-.54-2.3h1.92l11.06,8.75,11.3,6.53,6,4.54,7.62,7.06,6.83,3.69,3.92,1.15,2-3.15-2.84-1.08-5.92-5.38-1.69-6-6.22-6.77-5.14-4.3-2.54-6.45-8.75-13.06-11.91-10.45-.55-3.38,4.23.53,6,3.08,9.59,4,9.92.54,7.38,3.46,7.91,1.38,6.76-2-.54-2.85-7.68-1.69-6.77-3.07-13.6-6.53-7.36-4-3.93-4.77,1.39-1.69,2,1.38,3.07,1.15,4,.31h6.53l5.61-.61,8.53-.54,6.53,2.54,6.76,4.84,2.85.84.3-2.53-2.31-2.31L389.77,107l-10.52-5.38-7.6-.85-14.45-.85-3.37-4-7.37-7.37-8.22-5.61-3.07-2.84,2.53-2,3.92,1.69,7.06,3.69,8,2.84,10.76,2.54h9.3l7.68,8.53,6.23,3.68,2.23-2.3-8.46-12.45-13.29-9.6-11.07-2.61-9.37-9.84-8.22-4.84-11.29-2.84,6.22-5.37,11.06-3.69L356.67,45l1.92-2.53-1.07-2L353,39.28l-4.3-.84-32,.61L311,32.75l-6.46-4.23-8.21-3.69L285.6,23.14h-9.29l-2.54-3.38L265,10.39,254.49.78,248,11.54l-.31,3.38,3.08,4,.3,3.38-2.22,2-7.15.53-13-3.69L216,18.38l-5.92.23-9.68,2L201.55,24l5.38-.24,2.23.39Z"/></g></g></svg>